<svg width="41" height="41" viewBox="0 0 41 41" fill="none" xmlns="http://www.w3.org/2000/svg">
  <path d="M37.5324 16.8707C37.9808 15.5241 38.1363 14.0974 37.9886 12.6859C37.8409 11.2744 37.3934 9.91076 36.676 8.68622C35.6126 6.83404 33.9882 5.3676 32.0373 4.4985C30.0864 3.62941 27.9098 3.40259 25.8215 3.85078C24.8796 2.7893 23.7219 1.94125 22.4257 1.36341C21.1295 0.785575 19.7249 0.491269 18.3058 0.500197C16.1708 0.495044 14.0893 1.16803 12.3614 2.42214C10.6335 3.67624 9.34853 5.44666 8.6917 7.47815C7.30085 7.76286 5.98686 8.3414 4.8377 9.17505C3.68854 10.0087 2.73073 11.0782 2.02839 12.312C0.956464 14.1591 0.498905 16.2988 0.721698 18.4228C0.944492 20.5467 1.83612 22.5449 3.268 24.1293C2.81966 25.4759 2.66413 26.9026 2.81182 28.3141C2.95951 29.7256 3.40701 31.0892 4.12437 32.3138C5.18791 34.1659 6.8123 35.6322 8.76321 36.5013C10.7141 37.3704 12.8907 37.5973 14.9789 37.1492C15.9208 38.2107 17.0786 39.0587 18.3747 39.6366C19.6709 40.2144 21.0755 40.5087 22.4946 40.4998C24.6307 40.5054 26.7133 39.8321 28.4418 38.5772C30.1704 37.3223 31.4556 35.5506 32.1119 33.5179C33.5027 33.2332 34.8167 32.6547 35.9659 31.821C37.115 30.9874 38.0728 29.9178 38.7752 28.684C39.8458 26.8371 40.3023 24.6979 40.0789 22.5748C39.8556 20.4517 38.9639 18.4544 37.5324 16.8707ZM22.4978 37.8849C20.7443 37.8874 19.0459 37.2733 17.6994 36.1501C17.7601 36.117 17.8666 36.0586 17.936 36.0161L25.9004 31.4156C26.1003 31.3019 26.2663 31.137 26.3813 30.9378C26.4964 30.7386 26.5563 30.5124 26.5549 30.2825V19.0542L29.9213 20.998C29.9389 21.0068 29.9541 21.0198 29.9656 21.0359C29.977 21.052 29.9842 21.0707 29.9867 21.0902V30.3889C29.9842 32.375 29.1946 34.2791 27.7909 35.6841C26.3872 37.0892 24.4838 37.8806 22.4978 37.8849ZM6.39227 31.0064C5.51397 29.5047 5.19742 27.7511 5.49804 26.0429C5.55718 26.0726 5.66048 26.1306 5.73461 26.1699L13.699 30.7704C13.8975 30.8889 14.1233 30.9517 14.3532 30.9517C14.583 30.9517 14.8088 30.8889 15.0073 30.7704L24.731 25.1693V28.0578C24.7321 28.0721 24.7283 28.0864 24.7199 28.0991C24.7115 28.1118 24.6988 28.1221 24.6829 28.1283L16.6317 32.7792C14.9096 33.7299 12.8643 33.9015 11.0008 33.2536C9.13739 32.6057 7.64539 31.1836 6.79297 29.3579C6.64038 29.1018 6.5094 28.8387 6.39227 28.5686V31.0064ZM4.29707 13.6194C5.17156 12.0998 6.55279 10.9364 8.19885 10.3327C8.19885 10.4013 8.19491 10.5228 8.19491 10.6071V19.808C8.19351 20.0378 8.25334 20.2638 8.36823 20.4629C8.48312 20.6619 8.64893 20.8267 8.84863 20.9404L18.5723 26.5542L15.206 28.4979C15.1894 28.5089 15.1703 28.5155 15.1505 28.5173C15.1307 28.5191 15.1107 28.516 15.0924 28.5082L7.04046 23.8557C5.32135 22.8601 4.06716 21.2235 3.55289 19.3046C3.03862 17.3858 3.30624 15.3413 4.29707 13.6194ZM31.955 20.0556L22.2312 14.4411L25.5976 12.4981C25.6142 12.4872 25.6333 12.4805 25.6531 12.4787C25.6729 12.4769 25.6928 12.4801 25.7111 12.4879L33.7631 17.1364C34.9967 17.849 36.0017 18.8982 36.6606 20.1613C37.3194 21.4244 37.6047 22.849 37.4832 24.2684C37.3617 25.6878 36.8382 27.0432 35.9743 28.1759C35.1103 29.3086 33.9415 30.1717 32.6047 30.6641C32.6047 30.5947 32.6047 30.4733 32.6047 30.3889V21.188C32.6066 20.9586 32.5474 20.7328 32.4332 20.5338C32.319 20.3348 32.154 20.1698 31.955 20.0556ZM35.3055 15.0128C35.2464 14.9765 35.1431 14.9142 35.069 14.8717L27.1045 10.2712C26.906 10.1554 26.6803 10.0943 26.4504 10.0943C26.2206 10.0943 25.9948 10.1554 25.7963 10.2712L16.0726 15.8858V12.9974C16.0715 12.9831 16.0753 12.9688 16.0837 12.9561C16.0921 12.9434 16.1048 12.9331 16.1207 12.9269L24.1719 8.27599C25.4053 7.57936 26.8158 7.26986 28.2383 7.40313C29.6608 7.5364 31.0062 8.10697 32.1028 9.05006C33.1994 9.99315 33.9898 11.2616 34.3644 12.6759C34.739 14.0902 34.6876 15.5849 34.2064 16.9684C34.0789 17.3203 33.9221 17.6605 33.7372 17.9856C33.6917 17.9699 33.6409 17.9508 33.5849 17.9283L35.3055 15.0128ZM13.6877 16.4318L18.5723 13.6875L23.4569 16.4318V21.9201L18.5723 24.6644L13.6877 21.9201V16.4318ZM11.9321 17.9283C11.9047 17.9362 11.8758 17.9392 11.847 17.9372C11.8182 17.9352 11.7902 17.9283 11.7646 17.9167L3.75844 13.2662C3.67505 13.2238 3.5904 13.1558 3.51461 13.0824C3.37594 12.3456 3.33767 11.5923 3.40058 10.8453C3.46349 10.0983 3.62701 9.36508 3.88435 8.66585C4.14168 7.96661 4.48957 7.31323 4.91795 6.72518C5.34633 6.13713 5.84996 5.62072 6.40978 5.19302C6.40978 5.19302 6.48599 5.14913 6.53851 5.12244C6.56869 5.13599 6.59729 5.15323 6.62384 5.17394L14.5883 9.77449C14.7868 9.88982 15.0126 9.95096 15.2425 9.95096C15.4723 9.95096 15.6981 9.88982 15.8966 9.77449L25.6203 4.15994V7.04847C25.6203 7.04847 25.6203 7.14568 25.5916 7.17756L17.5404 11.8281C16.3693 12.4932 15.4142 13.4996 14.8064 14.7229C14.1985 15.9462 13.9627 17.3303 14.1347 18.6954C14.3066 20.0605 14.8784 21.3367 15.7678 22.3464C16.6573 23.3561 17.8203 24.0508 19.1028 24.3391C18.5985 24.6541 18.0413 24.8743 17.455 24.9881C16.8688 25.1018 16.2645 25.1068 15.6764 25.0028C15.0884 24.8988 14.5271 24.6877 14.0173 24.3806C13.5075 24.0736 13.0581 23.6767 12.6913 23.2116C12.3245 22.7465 12.0471 22.2221 11.8742 21.6658C11.7014 21.1094 11.6361 20.5295 11.6818 19.9519C11.7275 19.3743 11.8837 18.8091 12.1433 18.2832C12.4029 17.7573 12.7615 17.2801 13.2005 16.8741C13.2081 16.8676 13.2164 16.8618 13.2254 16.8567L11.9321 17.9283Z" fill="#10a37f"/>
</svg>